<svg id="Layer_1" data-name="Layer 1" xmlns="http://www.w3.org/2000/svg" viewBox="0 0 438.42 438.42"><defs><style>.cls-1{fill:#fff;}.cls-2{fill:#231f20;}.cls-3{font-size:132.82px;fill:#ee292f;font-family:DFGothic-EB-WIN-RKSJ-H, DFGothic-EB;}</style></defs><title>mr logo</title><path class="cls-1" d="M283.76,256v-.15S283.74,255.88,283.76,256Zm0,.09v0l0-.06c-.14-.51-.27-1-.43-1.51-.14-.24-.26-.5-.41-.73l-.43-.67s0,0,0,0h0c-.33-.33-.65-.66-1-1,0,0-.07-.07-.1-.08l-.06-.05-.06,0-.47-.31c-.24-.14-.52-.24-.74-.4H280c-.52-.17-1.05-.31-1.59-.45-.24,0-.5,0-.74,0s-.5,0-.74,0a1.42,1.42,0,0,0-.29,0l-.29,0-.56.14-.63.21s0,0,.05,0l-.14.07-.09,0h0c-.38.21-1,.62-1.17.71l-.07,0-.09.06-.09.07-.18.18-.8.81,0-.07a.25.25,0,0,0-.09.13l0,0-.06.07-.31.51c-.15.23-.27.49-.41.73-.14.46-.29.89-.39,1.36-.06.17-.06.41-.13.57a1.11,1.11,0,0,0,.07-.16.86.86,0,0,0,0,.17,9.84,9.84,0,0,0,0,1.33v.07a.64.64,0,0,1,0,.09c.05.19.08.38.12.55l.39,1.17.09.17c.09.16.17.33.27.48s.23.38.35.55c0,0,0,0,0,0l0,0,1,1.05c.16.11.31.23.47.33l1,.54a1.89,1.89,0,0,0-.21-.06l.17.07a.84.84,0,0,1,.19.07l.06,0,.56.17c.28.07.57.14.85.19h0c.43,0,.86.05,1.3,0l.5,0,.09,0c.47-.1.91-.24,1.38-.38H280a.19.19,0,0,1,.09,0l.48-.26.93-.61.21-.18.39-.38a5.49,5.49,0,0,1,.45-.5l0,0c.26-.41.51-.83.76-1.26l0-.07.19-.53c0-.12.19-.72.28-1.1v0c0-.29,0-.58,0-.86ZM385,498.63l-.05-.89v0l0-.24s0,.07,0,.17c-.13-.5-.25-1-.41-1.5,0,0,0,0,0,0-.14-.24-.26-.5-.4-.74s-.31-.45-.47-.69l-1-1-.22-.16-.47-.31c-.25-.14-.56-.26-.81-.41-.53-.19-1-.31-1.56-.45l-.74,0c-.26,0-.5,0-.75,0h-.18a.34.34,0,0,0-.13,0l-.27.05-.55.14-.61.19-.12.05-.08,0h0c-.38.2-1.07.62-1.19.7l-.07,0-.15.12-.21.19-.81.84,0,0h0v0l-.05.07c-.11.17-.23.33-.33.5s-.26.5-.4.74a.13.13,0,0,1,0,0c-.14.43-.28.86-.38,1.31a.75.75,0,0,0,0,.21.3.3,0,0,1,.07-.11,1.62,1.62,0,0,1-.12.38.22.22,0,0,0,0,.11c0,.43,0,.87,0,1.32v.07a.64.64,0,0,1,0,.09,4.44,4.44,0,0,0,.12.55l.34,1.08,0,0,.11.24c.08.16.18.33.27.49s.22.34.33.49h0l.11.1s0,0,0,0l0,0,0,.05,1,1s0,0,0,0l.43.28,1,.55a1.15,1.15,0,0,0-.2-.05.8.8,0,0,0,.17.06l.17.06.07,0,.57.17c.27.07.55.14.82.19h0c.45,0,.88.05,1.33,0l.52,0h.06c.47-.11.92-.26,1.36-.4a.22.22,0,0,1,.11,0l0,0,.5-.26.93-.6,0,0,.17-.15.4-.38c.12-.12.22-.28.37-.42s0,0,0,0c.31-.45.57-.91.85-1.4h0l.18-.52c0-.12.22-.86.29-1.21v0a.34.34,0,0,0,0-.14h0C385,499.05,385,498.84,385,498.63Zm-115.89,33-.05-.83v-.1c-.14-.52-.27-1.05-.43-1.55,0,0,0,0,0,0-.14-.24-.26-.5-.4-.74s-.31-.47-.47-.69l-1-1s0-.06-.05-.06l-.17-.12-.47-.29c-.25-.15-.57-.26-.81-.43-.53-.17-1-.29-1.56-.45.89,0-.81-.2,0,0l-.72,0h-.75l-.37,0-.21,0-.55.14-.57.17h0a.06.06,0,0,1-.05,0v0s0,0,0,0a.25.25,0,0,0-.12,0h0c-.38.21-1.07.62-1.19.69l-.17.12-.05,0-.23.17.23-.15-.21.19-.84.87,0,.06,0,0c-.09.17-.21.32-.31.5s-.26.5-.4.74c0,0,0,0,0,0-.14.43-.28.86-.38,1.31,0,.1,0,.24-.05.36a.11.11,0,0,0,0,.07v0a.22.22,0,0,0,0,.11c0,.44,0,.89,0,1.34l0-.07s0,0,0,0a1.59,1.59,0,0,0,.05.41s0-.09,0-.33a.64.64,0,0,1,0,.09,5.78,5.78,0,0,0,.12.57l.34,1.08-.05-.12a2.05,2.05,0,0,0,.14.38l-.07-.24.11.22c.08.18.18.33.27.49s.22.32.33.5l0,0,.07.07h0l.05.06,1,1.05-.12-.07c-.5-.28.74.69.14.08a3.94,3.94,0,0,0,.44.31l.92.52-.12,0,.17.07a.38.38,0,0,1,.1,0l.16.09s0,0,0,0l.57.17a5.41,5.41,0,0,0,.77.19,13.11,13.11,0,0,0,1.4.06l.39,0c-.53.14.33,0,.33,0l-.31,0a.74.74,0,0,1,.17,0,11.83,11.83,0,0,0,1.36-.38.22.22,0,0,1,.11,0s0,0,0,0a3.4,3.4,0,0,1,.5-.26l.9-.59-.07.07a.41.41,0,0,0,.14-.1h0l.21-.18.4-.39a5.74,5.74,0,0,1,.41-.47c.31-.46.57-.89.83-1.36h0l.18-.52c0-.12.22-.86.29-1.21v0a.34.34,0,0,0,0-.14h0C269.07,532.05,269.07,531.85,269.08,531.64Zm-12.16-2.48s0,0,0,0C257.23,528.19,256.51,529.85,256.92,529.16Zm4.94,8.75a.06.06,0,0,1-.05,0h-.08C261.09,537.88,262.81,538.12,261.86,537.91Zm3.4-.43c-.42.22.1,0,.24-.07A.93.93,0,0,0,265.26,537.48Zm-.09-11.71s0,0,.05,0l.07,0,.28.07C265.45,525.78,264.84,525.54,265.17,525.77Zm2.53,1.91c.11.1.16.15.19.15S267.31,527.06,267.7,527.68Zm.09,7.82s0,0-.05,0a.1.1,0,0,1,0,.07C267.22,536.36,268.24,535.14,267.79,535.5Zm.79-6.39s0,0,0,0C268.94,529.74,268.31,528.26,268.58,529.11Zm.5,2.53-.05-.83v-.1c-.14-.52-.27-1.05-.43-1.55,0,0,0,0,0,0-.14-.24-.26-.5-.4-.74s-.31-.47-.47-.69l-1-1s0-.06-.05-.06l-.17-.12-.47-.29c-.25-.15-.57-.26-.81-.43-.53-.17-1-.29-1.56-.45.89,0-.81-.2,0,0l-.72,0h-.75l-.37,0-.21,0-.55.14-.57.17h0a.06.06,0,0,1-.05,0v0s0,0,0,0a.25.25,0,0,0-.12,0h0c-.38.21-1.07.62-1.19.69l-.17.12-.05,0-.23.17.23-.15-.21.19-.84.87,0,.06,0,0c-.09.17-.21.32-.31.5s-.26.5-.4.74c0,0,0,0,0,0-.14.43-.28.86-.38,1.31,0,.1,0,.24-.05.36a.11.11,0,0,0,0,.07v0a.22.22,0,0,0,0,.11c0,.44,0,.89,0,1.34l0-.07s0,0,0,0a1.59,1.59,0,0,0,.05.41s0-.09,0-.33a.64.64,0,0,1,0,.09,5.78,5.78,0,0,0,.12.57l.34,1.08-.05-.12a2.05,2.05,0,0,0,.14.38l-.07-.24.11.22c.08.18.18.33.27.49s.22.32.33.5l0,0,.07.07h0l.05.06,1,1.05-.12-.07c-.5-.28.74.69.14.08a3.94,3.94,0,0,0,.44.31l.92.52-.12,0,.17.07a.38.38,0,0,1,.1,0l.16.09s0,0,0,0l.57.17a5.41,5.41,0,0,0,.77.19,13.11,13.11,0,0,0,1.4.06l.39,0c-.53.14.33,0,.33,0l-.31,0a.74.74,0,0,1,.17,0,11.83,11.83,0,0,0,1.36-.38.22.22,0,0,1,.11,0s0,0,0,0a3.4,3.4,0,0,1,.5-.26l.9-.59-.07.07a.41.41,0,0,0,.14-.1h0l.21-.18.4-.39a5.74,5.74,0,0,1,.41-.47c.31-.46.57-.89.83-1.36h0l.18-.52c0-.12.22-.86.29-1.21v0a.34.34,0,0,0,0-.14h0C269.07,532.05,269.07,531.85,269.08,531.64Zm-.5-2.53s0,0,0,0C268.94,529.74,268.31,528.26,268.58,529.11Zm-.79,6.39s0,0-.05,0a.1.1,0,0,1,0,.07C267.22,536.36,268.24,535.14,267.79,535.5Zm-.09-7.82c.11.1.16.15.19.15S267.31,527.06,267.7,527.68Zm-2.53-1.91s0,0,.05,0l.07,0,.28.07C265.45,525.78,264.84,525.54,265.17,525.77Zm.09,11.71c-.42.22.1,0,.24-.07A.93.93,0,0,0,265.26,537.48Zm-3.4.43a.06.06,0,0,1-.05,0h-.08C261.09,537.88,262.81,538.12,261.86,537.91Zm-4.94-8.75s0,0,0,0C257.23,528.19,256.51,529.85,256.92,529.16Zm0,0s0,0,0,0C257.23,528.19,256.51,529.85,256.92,529.16Zm4.94,8.75a.06.06,0,0,1-.05,0h-.08C261.09,537.88,262.81,538.12,261.86,537.91Zm3.4-.43c-.42.22.1,0,.24-.07A.93.93,0,0,0,265.26,537.48Zm-.09-11.71s0,0,.05,0l.07,0,.28.07C265.45,525.78,264.84,525.54,265.17,525.77Zm2.53,1.91c.11.1.16.15.19.15S267.31,527.06,267.7,527.68Zm.09,7.82s0,0-.05,0a.1.1,0,0,1,0,.07C267.22,536.36,268.24,535.14,267.79,535.5Zm.79-6.39s0,0,0,0C268.94,529.74,268.31,528.26,268.58,529.11Zm.5,2.53-.05-.83v-.1c-.14-.52-.27-1.05-.43-1.55,0,0,0,0,0,0-.14-.24-.26-.5-.4-.74s-.31-.47-.47-.69l-1-1s0-.06-.05-.06l-.17-.12-.47-.29c-.25-.15-.57-.26-.81-.43-.53-.17-1-.29-1.56-.45.89,0-.81-.2,0,0l-.72,0h-.75l-.37,0-.21,0-.55.14-.57.17h0a.06.06,0,0,1-.05,0v0s0,0,0,0a.25.25,0,0,0-.12,0h0c-.38.21-1.07.62-1.19.69l-.17.12-.05,0-.23.17.23-.15-.21.19-.84.87,0,.06,0,0c-.09.17-.21.32-.31.5s-.26.5-.4.74c0,0,0,0,0,0-.14.43-.28.86-.38,1.31,0,.1,0,.24-.05.36a.11.11,0,0,0,0,.07v0a.22.22,0,0,0,0,.11c0,.44,0,.89,0,1.34l0-.07s0,0,0,0a1.59,1.59,0,0,0,.05.41s0-.09,0-.33a.64.64,0,0,1,0,.09,5.78,5.78,0,0,0,.12.57l.34,1.08-.05-.12a2.05,2.05,0,0,0,.14.38l-.07-.24.11.22c.08.18.18.33.27.49s.22.32.33.5l0,0,.07.07h0l.05.06,1,1.05-.12-.07c-.5-.28.74.69.14.08a3.94,3.94,0,0,0,.44.31l.92.52-.12,0,.17.07a.38.38,0,0,1,.1,0l.16.09s0,0,0,0l.57.17a5.41,5.41,0,0,0,.77.19,13.11,13.11,0,0,0,1.4.06l.39,0c-.53.14.33,0,.33,0l-.31,0a.74.74,0,0,1,.17,0,11.83,11.83,0,0,0,1.36-.38.22.22,0,0,1,.11,0s0,0,0,0a3.4,3.4,0,0,1,.5-.26l.9-.59-.07.07a.41.41,0,0,0,.14-.1h0l.21-.18.4-.39a5.74,5.74,0,0,1,.41-.47c.31-.46.57-.89.83-1.36h0l.18-.52c0-.12.22-.86.29-1.21v0a.34.34,0,0,0,0-.14h0C269.07,532.05,269.07,531.85,269.08,531.64ZM216.3,505.39a.22.22,0,0,0,0,.08v-.05S216.31,505.4,216.3,505.39Zm0,0a.11.11,0,0,1,0-.07h0l0-.07v-.12s0,0,0,.06l-.39-1.38s0,0,0,0c-.14-.24-.26-.5-.39-.74s-.28-.41-.42-.64l-.05,0-1-1-.23-.15-.46-.31c-.24-.14-.52-.25-.74-.4,0,0,0,0-.05,0-.52-.19-1-.31-1.59-.45l-.74,0c-.24,0-.5,0-.74,0h-.09s0,0-.06,0h-.14l-.29.06-.56.13c-.2.07-.41.14-.6.19a.26.26,0,0,0-.12.06l-.09,0h0c-.38.21-1.07.62-1.19.71l-.23.15-.2.19-.78.81,0,0,0,0,0,0-.06.07c-.1.17-.22.33-.31.5s-.27.5-.41.74a13.26,13.26,0,0,0-.41,1.36,3.2,3.2,0,0,1-.11.57,1,1,0,0,0,.07-.15.74.74,0,0,0,0,.17,7.39,7.39,0,0,0,0,1.33v.07a.45.45,0,0,1,0,.08c.05.19.08.38.12.55l.39,1.17.09.18c.08.15.17.32.27.48s.23.38.35.55l0,0,0,0,1,1.05a4.48,4.48,0,0,1,.47.33l1,.53a1.49,1.49,0,0,0-.21,0l.17.07.18.05.07,0c.18.06.37.13.56.18l.85.19h0c.44,0,.86,0,1.3,0l.5,0,.09,0c.47-.1.91-.26,1.38-.4h.08s0,0,0,0l.5-.26.93-.6,0,0,.18-.16.39-.38c.16-.15.28-.36.45-.5l0,0c.27-.43.51-.86.77-1.32l0,0,.17-.52c0-.12.21-.72.29-1.1v0c0-.3,0-.59,0-.86Zm0,0a.22.22,0,0,0,0,.08v-.05S216.31,505.4,216.3,505.39Zm0,0a.11.11,0,0,1,0-.07h0l0-.07v-.12s0,0,0,.06l-.39-1.38s0,0,0,0c-.14-.24-.26-.5-.39-.74s-.28-.41-.42-.64l-.05,0-1-1-.23-.15-.46-.31c-.24-.14-.52-.25-.74-.4,0,0,0,0-.05,0-.52-.19-1-.31-1.59-.45l-.74,0c-.24,0-.5,0-.74,0h-.09s0,0-.06,0h-.14l-.29.06-.56.13c-.2.07-.41.14-.6.19a.26.26,0,0,0-.12.06l-.09,0h0c-.38.21-1.07.62-1.19.71l-.23.15-.2.19-.78.81,0,0,0,0,0,0-.06.07c-.1.17-.22.33-.31.5s-.27.5-.41.74a13.26,13.26,0,0,0-.41,1.36,3.2,3.2,0,0,1-.11.57,1,1,0,0,0,.07-.15.74.74,0,0,0,0,.17,7.39,7.39,0,0,0,0,1.33v.07a.45.45,0,0,1,0,.08c.05.19.08.38.12.55l.39,1.17.09.18c.08.15.17.32.27.48s.23.38.35.55l0,0,0,0,1,1.05a4.48,4.48,0,0,1,.47.33l1,.53a1.49,1.49,0,0,0-.21,0l.17.07.18.05.07,0c.18.06.37.13.56.18l.85.19h0c.44,0,.86,0,1.3,0l.5,0,.09,0c.47-.1.91-.26,1.38-.4h.08s0,0,0,0l.5-.26.93-.6,0,0,.18-.16.39-.38c.16-.15.28-.36.45-.5l0,0c.27-.43.51-.86.77-1.32l0,0,.17-.52c0-.12.21-.72.29-1.1v0c0-.3,0-.59,0-.86Zm47.2-26.12v-.17S263.48,479.16,263.5,479.27Zm0,.17s0,0,0-.05v0s0-.05,0-.08c-.14-.52-.27-1-.45-1.54l-.39-.72-.4-.6-.09-.09c-.31-.33-.63-.65-1-1l-.12-.1-.1-.07a4,4,0,0,0-.47-.29c-.26-.16-.57-.26-.81-.44-.53-.17-1-.31-1.57-.44h0c-.25,0-.49,0-.74,0s-.49,0-.75,0a1.52,1.52,0,0,0-.29,0h-.05l-.22.06a5.07,5.07,0,0,0-.56.13c-.25.07-.48.16-.74.23l-.07,0h0a.43.43,0,0,1-.12.05c-.4.23-1,.57-1.07.66l-.17.12-.05,0-.21.19-.85.88,0,0,0,.05c-.09.16-.21.33-.31.5s-.26.48-.4.72c0,0,0,0,0,.06-.14.44-.28.86-.38,1.31a4.63,4.63,0,0,1-.11.56.2.2,0,0,0,0-.08.18.18,0,0,0,0,.1,9.79,9.79,0,0,0,0,1.33v.05a.24.24,0,0,0,0,.1,5.78,5.78,0,0,0,.12.57l.34,1.09h0l.1.23c.09.15.17.33.28.48s.2.31.29.48l0,0,.12.19s0,0,.05.05a.55.55,0,0,0-.09-.14l1,1,0,.05.41.28,1,.53c-.19-.07-.36-.1,0,0a.07.07,0,0,1,.06,0l.19.1a0,0,0,0,0,0,0c.21.05.4.12.58.17a7.38,7.38,0,0,0,.78.19c.47,0,.93.07,1.4,0l.41,0a.06.06,0,0,0,.05,0,.3.3,0,0,0,.12,0c.47-.1.91-.24,1.36-.38a.18.18,0,0,1,.09,0l0,0c.15-.1.33-.17.5-.28l.93-.6,0,0,.18-.16.39-.38c.14-.13.28-.34.43-.48l0,0c.26-.42.5-.83.76-1.26v-.07l.19-.53c0-.12.19-.73.28-1.09v0c0-.3,0-.57,0-.88ZM203,357s0,.12,0,.24Zm0,.29c-.13-.55-.27-1.09-.43-1.62,0,0,0,0,0,0-.14-.25-.26-.49-.4-.73s-.31-.46-.46-.7l-1-1-.15-.12-.07-.05-.46-.31c-.26-.14-.57-.26-.81-.41-.54-.18-1-.32-1.57-.45h0c-.24,0-.48,0-.72,0s-.5,0-.74,0a1.56,1.56,0,0,0-.31,0l-.28.05-.55.15-.72.23-.09,0h0c-.38.21-1.07.62-1.19.71l-.06,0-.07.05s-.06.06-.09.09l-.21.17-.84.9,0,.05,0,0a5.7,5.7,0,0,1-.31.5l-.39.73s0,0,0,.05c-.14.45-.27.86-.38,1.31a4.65,4.65,0,0,1-.1.56.16.16,0,0,0,0-.08.34.34,0,0,0,0,.1,11.8,11.8,0,0,0,0,1.33V359a.24.24,0,0,0,0,.1c0,.19.07.38.12.56l.35,1.08.12.26.27.48.33.5,0,0,.06.07,0,0,0,0h0v0l1,1.05.05,0,.42.28,1,.53c-.08,0-.15,0-.2,0l.17.07.17,0,.07,0,.57.17a5.76,5.76,0,0,0,.77.19.07.07,0,0,1,.06,0,12,12,0,0,0,1.34,0l.52,0a.2.2,0,0,1,.07,0c.46-.1.91-.24,1.36-.38h.07s.05,0,.06-.06c.16-.08.33-.15.5-.25l.93-.61,0,0,.17-.16.4-.38c.12-.12.22-.27.38-.41,0,0,0,0,0,0,.31-.45.57-.92.85-1.4l0,0,.17-.5c0-.12.2-.74.27-1.11h0c0-.3,0-.57,0-.88Zm-37.69-88.84c.27-.92-.48.82,0,0Zm4.91-3.76-.28,0,.28,0,.21,0A.86.86,0,0,0,170.18,264.68ZM172,277.24c-.16,0-.24,0-.28.07a2.54,2.54,0,0,0,.49-.09ZM172,264.7c.93,0-.84-.21,0,0Zm1.52.41s0,0,0,0h.07a.82.82,0,0,0,.27.07C173.76,265.13,173.16,264.87,173.49,265.11Zm3.41,3.33a.64.64,0,0,1,0,.07C177.24,269,176.64,267.61,176.9,268.44Zm.5,2.53-.05-.81v-.1c-.14-.54-.28-1-.43-1.55a.1.1,0,0,0,0-.07c-.14-.24-.26-.5-.4-.73s-.29-.44-.43-.67c.42.4,0-.15-.13-.26a.76.76,0,0,0,.12.23h0l-1-1A.36.36,0,0,1,175,266a0,0,0,0,0,0,0l-.05,0-.07,0-.46-.31c-.26-.14-.57-.26-.81-.41-.54-.18-1-.31-1.57-.45-.26,0-.5,0-.74,0a6,6,0,0,0-.74,0,1.62,1.62,0,0,0-.31,0l-.28.05-.55.14-.64.2.06,0-.14.07-.09,0h0c-.38.21-1.07.62-1.19.71l-.07,0-.07.06a.36.36,0,0,1-.09.08l-.2.17-.81.85,0,0v0h0v0l0,.07c-.1.17-.22.32-.32.51s-.26.49-.4.73a10.19,10.19,0,0,0-.41,1.36.71.71,0,0,0,0,.2.53.53,0,0,0,0,.18.34.34,0,0,0,0,.1.18.18,0,0,0,0,.1,9.84,9.84,0,0,0,0,1.33.06.06,0,0,1,0,0h0v.12a1.09,1.09,0,0,0,0,.26s0,.07,0,0v0s0-.1,0-.29c0,0,0,.05,0,.08,0,.19.07.38.12.56l.35,1.08c0,.07,0,.16.09.26l-.07-.24.1.24.28.48c.12.17.22.35.32.5a0,0,0,0,0,0,0l.07.07.05.06h0l1,1.05-.12-.07-.1,0c.05.09.72.59.24.12.15.09.31.21.45.31l1,.53c-.09,0-.16,0-.21,0l.17.07a.84.84,0,0,1,.19.07l.05,0,.57.17c.28.07.55.14.83.19H170c-.62,0,1.07.22.16,0,.44,0,.87.05,1.32,0l.52,0s0,0,.07,0c.46-.1.91-.26,1.36-.38-.21.16.22,0,.34-.08a1.06,1.06,0,0,0-.32.08.4.4,0,0,0,.12-.07l.5-.25.93-.61-.11.11c.07,0,.18-.16.33-.26l-.19.12.17-.16.4-.38c.16-.15.28-.36.45-.49a.35.35,0,0,0-.05.08c-.5.76.51-.45.07-.1.25-.43.51-.86.77-1.33l0,0,.17-.51c0-.12.22-.86.29-1.21v0a.26.26,0,0,0,0-.14h0C177.38,271.38,177.4,271.18,177.4,271Zm0,0-.05-.81v-.1c-.14-.54-.28-1-.43-1.55a.1.1,0,0,0,0-.07c-.14-.24-.26-.5-.4-.73s-.29-.44-.43-.67c.42.4,0-.15-.13-.26a.76.76,0,0,0,.12.23h0l-1-1A.36.36,0,0,1,175,266a0,0,0,0,0,0,0l-.05,0-.07,0-.46-.31c-.26-.14-.57-.26-.81-.41-.54-.18-1-.31-1.57-.45-.26,0-.5,0-.74,0a6,6,0,0,0-.74,0,1.62,1.62,0,0,0-.31,0l-.28.05-.55.14-.64.2.06,0-.14.07-.09,0h0c-.38.21-1.07.62-1.19.71l-.07,0-.07.06a.36.36,0,0,1-.09.08l-.2.17-.81.85,0,0v0h0v0l0,.07c-.1.17-.22.32-.32.51s-.26.49-.4.73a10.19,10.19,0,0,0-.41,1.36.71.71,0,0,0,0,.2.53.53,0,0,0,0,.18.34.34,0,0,0,0,.1.18.18,0,0,0,0,.1,9.84,9.84,0,0,0,0,1.33.06.06,0,0,1,0,0h0v.12a1.09,1.09,0,0,0,0,.26s0,.07,0,0v0s0-.1,0-.29c0,0,0,.05,0,.08,0,.19.07.38.12.56l.35,1.08c0,.07,0,.16.09.26l-.07-.24.1.24.28.48c.12.17.22.35.32.5a0,0,0,0,0,0,0l.07.07.05.06h0l1,1.05-.12-.07-.1,0c.05.09.72.59.24.12.15.09.31.21.45.31l1,.53c-.09,0-.16,0-.21,0l.17.07a.84.84,0,0,1,.19.07l.05,0,.57.17c.28.07.55.14.83.19H170c-.62,0,1.07.22.16,0,.44,0,.87.05,1.32,0l.52,0s0,0,.07,0c.46-.1.91-.26,1.36-.38-.21.16.22,0,.34-.08a1.06,1.06,0,0,0-.32.08.4.4,0,0,0,.12-.07l.5-.25.93-.61-.11.11c.07,0,.18-.16.33-.26l-.19.12.17-.16.4-.38c.16-.15.28-.36.45-.49a.35.35,0,0,0-.05.08c-.5.76.51-.45.07-.1.25-.43.51-.86.77-1.33l0,0,.17-.51c0-.12.22-.86.29-1.21v0a.26.26,0,0,0,0-.14h0C177.38,271.38,177.4,271.18,177.4,271Zm-.5-2.53a.64.64,0,0,1,0,.07C177.24,269,176.64,267.61,176.9,268.44Zm-3.41-3.33s0,0,0,0h.07a.82.82,0,0,0,.27.07C173.76,265.13,173.16,264.87,173.49,265.11ZM172,264.7c.93,0-.84-.21,0,0Zm.07,12.54c-.16,0-.24,0-.28.07a2.54,2.54,0,0,0,.49-.09Zm-1.86-12.56-.28,0,.28,0,.21,0A.86.86,0,0,0,170.18,264.68Zm-4.91,3.76c.27-.92-.48.82,0,0ZM177.4,271l-.05-.81v-.1c-.14-.54-.28-1-.43-1.55a.1.1,0,0,0,0-.07c-.14-.24-.26-.5-.4-.73s-.29-.44-.43-.67c.42.4,0-.15-.13-.26a.76.76,0,0,0,.12.23h0l-1-1A.36.36,0,0,1,175,266a0,0,0,0,0,0,0l-.05,0-.07,0-.46-.31c-.26-.14-.57-.26-.81-.41-.54-.18-1-.31-1.57-.45-.26,0-.5,0-.74,0a6,6,0,0,0-.74,0,1.62,1.62,0,0,0-.31,0l-.28.05-.55.14-.64.2.06,0-.14.07-.09,0h0c-.38.21-1.07.62-1.19.71l-.07,0-.07.06a.36.36,0,0,1-.09.08l-.2.17-.81.85,0,0v0h0v0l0,.07c-.1.17-.22.32-.32.51s-.26.49-.4.73a10.19,10.19,0,0,0-.41,1.36.71.71,0,0,0,0,.2.53.53,0,0,0,0,.18.34.34,0,0,0,0,.1.18.18,0,0,0,0,.1,9.84,9.84,0,0,0,0,1.33.06.06,0,0,1,0,0h0v.12a1.09,1.09,0,0,0,0,.26s0,.07,0,0v0s0-.1,0-.29c0,0,0,.05,0,.08,0,.19.07.38.12.56l.35,1.08c0,.07,0,.16.09.26l-.07-.24.1.24.28.48c.12.17.22.35.32.5a0,0,0,0,0,0,0l.07.07.05.06h0l1,1.05-.12-.07-.1,0c.05.09.72.59.24.12.15.09.31.21.45.31l1,.53c-.09,0-.16,0-.21,0l.17.07a.84.84,0,0,1,.19.07l.05,0,.57.17c.28.07.55.14.83.19H170c-.62,0,1.07.22.16,0,.44,0,.87.05,1.32,0l.52,0s0,0,.07,0c.46-.1.91-.26,1.36-.38-.21.16.22,0,.34-.08a1.06,1.06,0,0,0-.32.08.4.4,0,0,0,.12-.07l.5-.25.93-.61-.11.11c.07,0,.18-.16.33-.26l-.19.12.17-.16.4-.38c.16-.15.28-.36.45-.49a.35.35,0,0,0-.05.08c-.5.76.51-.45.07-.1.25-.43.51-.86.77-1.33l0,0,.17-.51c0-.12.22-.86.29-1.21v0a.26.26,0,0,0,0-.14h0C177.38,271.38,177.4,271.18,177.4,271Zm-12.13-2.53c.27-.92-.48.82,0,0Zm4.91-3.76-.28,0,.28,0,.21,0A.86.86,0,0,0,170.18,264.68ZM172,277.24c-.16,0-.24,0-.28.07a2.54,2.54,0,0,0,.49-.09ZM172,264.7c.93,0-.84-.21,0,0Zm1.52.41s0,0,0,0h.07a.82.82,0,0,0,.27.07C173.76,265.13,173.16,264.87,173.49,265.11Zm3.41,3.33a.64.64,0,0,1,0,.07C177.24,269,176.64,267.61,176.9,268.44Zm.5,2.53-.05-.81v-.1c-.14-.54-.28-1-.43-1.55a.1.1,0,0,0,0-.07c-.14-.24-.26-.5-.4-.73s-.29-.44-.43-.67c.42.4,0-.15-.13-.26a.76.76,0,0,0,.12.23h0l-1-1A.36.36,0,0,1,175,266a0,0,0,0,0,0,0l-.05,0-.07,0-.46-.31c-.26-.14-.57-.26-.81-.41-.54-.18-1-.31-1.57-.45-.26,0-.5,0-.74,0a6,6,0,0,0-.74,0,1.62,1.62,0,0,0-.31,0l-.28.05-.55.14-.64.2.06,0-.14.07-.09,0h0c-.38.21-1.07.62-1.19.71l-.07,0-.07.06a.36.36,0,0,1-.09.08l-.2.17-.81.85,0,0v0h0v0l0,.07c-.1.17-.22.32-.32.51s-.26.49-.4.73a10.19,10.19,0,0,0-.41,1.36.71.71,0,0,0,0,.2.53.53,0,0,0,0,.18.34.34,0,0,0,0,.1.18.18,0,0,0,0,.1,9.84,9.84,0,0,0,0,1.33.06.06,0,0,1,0,0h0v.12a1.09,1.09,0,0,0,0,.26s0,.07,0,0v0s0-.1,0-.29c0,0,0,.05,0,.08,0,.19.07.38.12.56l.35,1.08c0,.07,0,.16.09.26l-.07-.24.1.24.28.48c.12.17.22.35.32.5a0,0,0,0,0,0,0l.07.07.05.06h0l1,1.05-.12-.07-.1,0c.05.09.72.59.24.12.15.09.31.21.45.31l1,.53c-.09,0-.16,0-.21,0l.17.07a.84.84,0,0,1,.19.07l.05,0,.57.17c.28.07.55.14.83.19H170c-.62,0,1.07.22.16,0,.44,0,.87.05,1.32,0l.52,0s0,0,.07,0c.46-.1.91-.26,1.36-.38-.21.16.22,0,.34-.08a1.06,1.06,0,0,0-.32.08.4.4,0,0,0,.12-.07l.5-.25.93-.61-.11.11c.07,0,.18-.16.33-.26l-.19.12.17-.16.4-.38c.16-.15.28-.36.45-.49a.35.35,0,0,0-.05.08c-.5.76.51-.45.07-.1.25-.43.51-.86.77-1.33l0,0,.17-.51c0-.12.22-.86.29-1.21v0a.26.26,0,0,0,0-.14h0C177.38,271.38,177.4,271.18,177.4,271Zm-12.13-2.53c.27-.92-.48.82,0,0Zm4.91-3.76-.28,0,.28,0,.21,0A.86.86,0,0,0,170.18,264.68ZM172,277.24c-.16,0-.24,0-.28.07a2.54,2.54,0,0,0,.49-.09ZM172,264.7c.93,0-.84-.21,0,0Zm1.52.41s0,0,0,0h.07a.82.82,0,0,0,.27.07C173.76,265.13,173.16,264.87,173.49,265.11Zm3.41,3.33a.64.64,0,0,1,0,.07C177.24,269,176.64,267.61,176.9,268.44Zm346,103.71c-.2-2.85-.48-5.67-.79-8.5-.08-.72-.17-1.44-.26-2.18,0-.23-.05-.49-.08-.71-.16-1.38-.4-2.76-.61-4.14a225.61,225.61,0,0,0-8-33.92q-2.62-8.26-5.89-16.31c-.21-.5-.39-1-.58-1.52a.41.41,0,0,1-.07-.17l-.23-.46c0-.09-.08-.18-.12-.28-.57-1.29-1.13-2.58-1.72-3.88-1.15-2.56-2.38-5.1-3.64-7.63a227,227,0,0,0-17.52-29.37q-2.4-3.42-4.94-6.75c-.1-.12-.19-.26-.29-.4l-.05-.05c-.13-.17-.25-.35-.38-.5l-.87-1.09c-.87-1.1-1.75-2.17-2.63-3.25q-5.4-6.57-11.3-12.73c-3.84-4-7.86-7.91-12-11.65a146.67,146.67,0,0,0-12.53-10.56l-.2-.14c-.3-.22-.68-.52-.95-.7L435.59,214c-1-.76-2.09-1.54-3.14-2.28q-3.54-2.52-7.16-4.92-7-4.63-14.36-8.74-7.51-4.19-15.31-7.78-2-1-4.14-1.87c-.55-.25-1.1-.5-1.65-.72,0,0,0,0-.05,0s0,0,0,0l-.05,0s0,0,0,0l-.07,0h0a.13.13,0,0,0-.07,0l0,0-.08,0c-.06,0-.07,0-.11,0s-.05,0-.07,0c-2.56-1.06-5.13-2.07-7.73-3a227.22,227.22,0,0,0-33.61-9.61c-2.85-.59-5.7-1.1-8.56-1.58-1.54-.25-3.09-.49-4.64-.71l-.65-.07h.15c-.62,0-1.26-.16-1.86-.24q-9-1.08-18-1.48a232.51,232.51,0,0,0-36,1.25l-2.48.31c-.17,0-.36.06-.53.07a.8.8,0,0,0,.15,0,.34.34,0,0,0-.13,0,1.52,1.52,0,0,0-.21,0h.07a3.26,3.26,0,0,1-.41,0h-.07c-.38.05-.74.11-1.11.18V203a3.43,3.43,0,0,1,.64.21,15.17,15.17,0,0,1,10,13.56,4.36,4.36,0,0,1,0,.51v0a4.71,4.71,0,0,1,0,.53c-.35,6.65-5.15,12.84-11.87,14A14.9,14.9,0,0,1,258,207.59a14.25,14.25,0,0,1,7-4.55V174q-1.29.22-2.58.48-8.64,1.71-17.11,4.07-5.84,1.62-11.58,3.56v70.58h29.58a15.68,15.68,0,0,1,2.91-5.42,14.92,14.92,0,0,1,16.25-4.34,15.17,15.17,0,0,1,9.94,13.52,4.19,4.19,0,0,1,0,.5v.12a4.67,4.67,0,0,1,0,.52c-.33,6.63-5.15,12.81-11.85,14a15.18,15.18,0,0,1-15.89-7,13.9,13.9,0,0,1-1.44-3.3H229.42a3.92,3.92,0,0,1-3-1.19l-.15-.16a3.89,3.89,0,0,1-1.19-3V236.19c-.33,0-.67,0-1,0l-33.78-.36A14.81,14.81,0,0,1,179,246.45a14.92,14.92,0,0,1-14.35-24.34A14.92,14.92,0,0,1,181,217.77a15.27,15.27,0,0,1,9.18,9.42h0c.81,0,1.62,0,2.42,0,10.86.1,21.69.2,32.55.33V185.19c-1.36.52-2.71,1.05-4.05,1.61-.62.25-1.29.48-1.9.75l-.17.09a.06.06,0,0,1-.05,0l-.59.25c-1.29.57-2.58,1.14-3.85,1.73A225.88,225.88,0,0,0,184.72,206c-4.74,3.1-9.34,6.34-13.85,9.77a.2.2,0,0,0-.09.07l-.14.08s0,.05-.06.07a0,0,0,0,1,0,0,.35.35,0,0,1-.1.08l0,0-.15.12-.07.05-.09.07c-.46.36-.93.74-1.41,1.1L165.49,220q-3.23,2.66-6.35,5.44a229.13,229.13,0,0,0-23.47,24.19c-1,1.14-1.91,2.31-2.84,3.46-.45.55-.88,1.09-1.31,1.64-.1.14-.41.53-.67.86l-.07.1s0,0,0-.05a.46.46,0,0,0-.07.1c0,.06-.07.09-.09.13a.15.15,0,0,0-.08.1l-.06.07h0c-.24.33-.49.64-.73.95-.41.57-.84,1.12-1.25,1.69-.76,1-1.54,2.08-2.28,3.14q-1.71,2.37-3.31,4.8h34a15.88,15.88,0,0,1,2.89-5.42A15,15,0,0,1,176,256.89,15.17,15.17,0,0,1,186,270.42c0,.17,0,.33,0,.5V271c0,.17,0,.34,0,.51-.35,6.64-5.15,12.82-11.86,14a15.16,15.16,0,0,1-15.88-7,13.94,13.94,0,0,1-1.45-3.3H117.36l-.52.84q-4.36,7.22-8.2,14.71c-1.32,2.6-2.6,5.24-3.81,7.89q-.94,2-1.86,4.14c-.24.53-.46,1.07-.7,1.62,0,0,0,0,0,0l0,.1,0,.11h0l-.07.16h0s0,0,0,.06q-3.93,9.63-7,19.55l3.59,0,60.5-.19,33.68-.12V304.92a14.65,14.65,0,0,1-8.55-6.58A15.17,15.17,0,0,1,185.8,281a14.9,14.9,0,0,1,16.25-4.33A15.12,15.12,0,0,1,212,290.18a4.19,4.19,0,0,1,0,.5v.12a4.36,4.36,0,0,1,0,.51A15.11,15.11,0,0,1,201.41,305v21.74a7.05,7.05,0,0,1-4.3,6l-13.86.05-60.5.21-30.22.1c-.41,1.53-.81,3.07-1.18,4.62q-1.95,8-3.29,16.07H182.5a15.42,15.42,0,0,1,2.89-5.43,14.91,14.91,0,0,1,16.26-4.32,15.12,15.12,0,0,1,9.94,13.54,4.55,4.55,0,0,1,0,.52v.07a4.38,4.38,0,0,1,0,.51c-.34,6.64-5.15,12.82-11.87,14a15.18,15.18,0,0,1-15.88-7,14.79,14.79,0,0,1-1.43-3.31H86.78c-.34,2.9-.65,5.81-.88,8.74a231.88,231.88,0,0,0-.07,36c.23,2.95.5,5.87.85,8.8.08.83.19,1.66.29,2.5v0a.24.24,0,0,0,0,.08v0s0,.06,0,.12,0,.13,0,.22v0c.19,1.33.38,2.66.58,4q1.39,8.76,3.43,17.37a225.2,225.2,0,0,0,10.55,32.85c.05.14.27.69.46,1.14v0s0,0,0,0a1,1,0,0,1,.07.16l0,.12s0,0,0,0a.17.17,0,0,0,0,.07s0,.05,0,.07l0,0c0,.06,0,.09,0,.14.17.36.34.78.39.9.55,1.29,1.14,2.58,1.73,3.86,1.17,2.56,2.37,5.11,3.65,7.63q3.77,7.51,8.11,14.76c2.91,4.88,6,9.67,9.31,14.32q2.5,3.54,5.15,7a3.51,3.51,0,0,0,.22.29v0l.07.08,1.29,1.64,2.64,3.25a228.44,228.44,0,0,0,18.65,20c0-2,.06-4.08.06-6.11q0-21.76,0-43.54,0-25.17,0-50.33,0-20.83,0-41.64c0-4.47,0-8.91,0-13.37l-1.67,0-31.83.54h0a14.71,14.71,0,0,1-11.25,10.52,14.91,14.91,0,0,1-14.34-24.34,14.91,14.91,0,0,1,16.25-4.34,15.26,15.26,0,0,1,9.23,9.54c.56,0,1.12,0,1.68,0q17.7-.29,35.38-.59a4,4,0,0,1,2.41.67,3.91,3.91,0,0,1,2.78,3.91V390c.25,7.05,0,14.16,0,21.23q0,21.78,0,43.53c0,7.1,0,14.2,0,21.31q3.33,0,6.63-.09l47.81-.65,26.77-.36a15.31,15.31,0,0,1,2.57-4.45,14.88,14.88,0,0,1,16.24-4.32,15.16,15.16,0,0,1,10,13.57,4,4,0,0,1,0,.49v.07a4.74,4.74,0,0,1,0,.55c-.34,6.63-5.15,12.78-11.85,14a15.15,15.15,0,0,1-15.88-7,14,14,0,0,1-1.69-4.29l-7,.11q-23.91.3-47.81.65l-25.7.36q0,10.21,0,20.42,0,20.79,0,41.64v9.82c.78.68,1.55,1.34,2.34,2,1.16,1,2.31,1.92,3.48,2.85l1.64,1.31.48.39c.16.12.31.26.48.4a147.28,147.28,0,0,0,13.08,9.22,226.13,226.13,0,0,0,30,16.62c1.27.59,2.57,1.17,3.86,1.72.62.28,1.24.52,1.84.81l.1,0a.38.38,0,0,1,.14,0c.09,0,.11,0,.12,0l.21.09c2.62,1.08,5.25,2.1,7.92,3.08q8.17,3,16.56,5.39c4.63,1.31,9.3,2.48,14,3.48V545.85a14.58,14.58,0,0,1-8.52-6.6,15.11,15.11,0,0,1,1.53-17.34,14.88,14.88,0,0,1,16.26-4.35,15.15,15.15,0,0,1,9.94,13.56,4.73,4.73,0,0,1,0,.52v.07a4.73,4.73,0,0,1,0,.52A15.18,15.18,0,0,1,267.07,546v59.81c1,.19,2,.36,3,.52,1.43.24,2.88.45,4.33.65l.19,0h.17a.28.28,0,0,0,.14,0,.79.79,0,0,1,.2,0H275l.43.05-.16,0,1.79.23A229.63,229.63,0,0,0,313,608.73c6-.22,12-.67,18-1.37.76-.09,1.54-.19,2.29-.26a.16.16,0,0,1,.09,0h0a.1.1,0,0,1,.07,0h.21a.11.11,0,0,1,.08,0l.16,0a.06.06,0,0,1,0,0c1.34-.19,2.69-.39,4-.6,3-.46,5.93-1,8.87-1.58a227.26,227.26,0,0,0,33.37-9.38c2.67-1,5.33-2,7.95-3.08.24-.1.5-.21.74-.29s.43-.19.65-.28l.14,0,.09,0,1.06-.49c1.21-.51,2.4-1.05,3.6-1.6,5.21-2.38,10.32-4.94,15.35-7.72A235.46,235.46,0,0,0,438,563.6a.18.18,0,0,1,.07-.05.44.44,0,0,1,.11-.09l.36-.28.12-.08a1.86,1.86,0,0,1,.22-.19l1.64-1.29,3.24-2.64c2.15-1.79,4.25-3.6,6.34-5.46q4.41-4,8.63-8.15c-1.6,0-3.19,0-4.79,0l-42.55.76-49.41.88-40.64.72c-5.65.09-11.28.19-16.92.3a3.77,3.77,0,0,1-3.25-1.47l-.26-.31a4.19,4.19,0,0,1-.79-2.53v-35l-6.07.12-44.81.93-24.84.52a14.78,14.78,0,0,1-11.28,10.59,14.91,14.91,0,0,1-14.34-24.34A14.93,14.93,0,0,1,215,492.24a15.34,15.34,0,0,1,9.21,9.48l7.33-.16q22.38-.46,44.79-.91,14-.31,28.06-.59c3-.07,4.36,2.4,4.12,4.7v0a4.5,4.5,0,0,1,.19,1.31v33.22c5.56-.18,11.15-.12,16.69-.23l42.55-.74c2.42,0,4.83-.08,7.24-.12,0-.89,0-1.79-.05-2.69q-.24-11.29-.48-22.6a14.68,14.68,0,0,1-8.82-6.68,15.12,15.12,0,0,1,1.53-17.35,14.91,14.91,0,0,1,16.26-4.34,15.22,15.22,0,0,1,10,13.59,3.85,3.85,0,0,1,0,.48v.07a4.55,4.55,0,0,1,0,.52,15.13,15.13,0,0,1-10.3,13.62c0,.54,0,1.09,0,1.62.18,7.86.33,15.75.5,23.61l33.56-.61,40.66-.72,9.1-.16c2.18-2.39,4.3-4.84,6.37-7.32.95-1.13,1.9-2.31,2.83-3.46.44-.55.87-1.1,1.31-1.64a1.58,1.58,0,0,0,.12-.15c.12-.16.22-.28.29-.36l.1-.12.09-.11,0,0c1.66-2,3.12-4.24,4.64-6.36a227.27,227.27,0,0,0,17.5-29q1.92-3.76,3.67-7.61,1-2.07,1.86-4.14l.62-1.41c.05-.1.1-.26.17-.45s.16-.36.23-.55q3.22-7.87,5.87-16A225.18,225.18,0,0,0,521,423.67c.24-1.43.45-2.87.65-4.32a.06.06,0,0,1,0-.05.35.35,0,0,1,0-.1s0,0,0-.06a.12.12,0,0,1,0-.08V419c0-.05,0-.08,0-.12v-.05c0-.1,0-.16,0-.19v0c.07-.65.15-1.29.22-1.93.35-2.93.64-5.85.88-8.78.46-6.05.71-12.11.71-18.2Q523.59,380.91,522.91,372.15Zm-170.1,87.2-4-69.72c-1.17-22.15-2.58-48.77-2.34-68.55h-.7c-5.43,18.61-12,38.39-20,60.3l-28,77H282.14l-25.69-75.62c-7.52-22.38-13.88-42.86-18.36-61.71h-.46c-.49,19.78-1.66,46.4-3.07,70.19l-4.24,68.08H210.77l11.06-158.77H248l27.1,76.8c6.6,19.56,12,37,16,53.46h.73c4-16,9.64-33.44,16.71-53.46l28.27-76.8h26.15l9.89,158.77ZM173.45,237.67l.17.05,0,0h0l.57.18.85.19h0c.45,0,.86,0,1.31,0l.5,0,.09,0c.46-.1.91-.26,1.38-.4h.08s0,0,0,0l.5-.26.93-.6,0,0,.17-.16.4-.38a5.49,5.49,0,0,1,.45-.5l0,0,.77-1.32,0,0,.17-.52c0-.12.24-.84.29-1.2s0-.54,0-.79l-.05-.9v0l0-.24s0,.07,0,.18c-.14-.5-.26-1-.42-1.5,0,0,0,0,0,0-.14-.24-.26-.5-.4-.74s-.27-.41-.37-.6c0,0,0,0,0,0l0-.05-1-1,0-.05-.18-.12-.46-.29a7.82,7.82,0,0,1-.81-.43c-.52-.18-1-.3-1.57-.44h-.12c-.22,0-.41,0-.62,0s-.5,0-.74,0h-.1a.07.07,0,0,1-.06,0h-.13l-.3.06-.55.13c-.19.07-.38.12-.57.18h-.05a.09.09,0,0,0-.08,0l-.07,0h0v0c-.38.21-1.07.62-1.19.69l-.06.05a1.35,1.35,0,0,1-.17.12l-.2.19L171,228l0,0v0l0,0s0,0,0,0c-.09.17-.21.35-.31.5s-.26.5-.4.74a11.16,11.16,0,0,0-.41,1.36,3.2,3.2,0,0,1-.11.57l.07-.15a.43.43,0,0,0,0,.17,7.38,7.38,0,0,0,0,1.33v0h0s0,.06,0,.09.07.36.12.55l.35,1.09h0l.14.23c.08.17.17.33.26.5s.22.34.32.5a0,0,0,0,0,0,0l.1.1a0,0,0,0,1,0,0l0,0,0,0,1,1c.16.09.31.21.47.31l1,.55a1.49,1.49,0,0,0-.21-.05Zm3.45,30.77a.64.64,0,0,1,0,.07C177.24,269,176.64,267.61,176.9,268.44Zm-3.41-3.33s0,0,0,0h.07a.82.82,0,0,0,.27.07C173.76,265.13,173.16,264.87,173.49,265.11ZM172,264.7c.93,0-.84-.21,0,0Zm.07,12.54c-.16,0-.24,0-.28.07a2.54,2.54,0,0,0,.49-.09Zm-1.86-12.56-.28,0,.28,0,.21,0A.86.86,0,0,0,170.18,264.68Zm-4.91,3.76c.27-.92-.48.82,0,0ZM177.4,271l-.05-.81v-.1c-.14-.54-.28-1-.43-1.55a.1.1,0,0,0,0-.07c-.14-.24-.26-.5-.4-.73s-.29-.44-.43-.67c.42.4,0-.15-.13-.26a.76.76,0,0,0,.12.23h0l-1-1A.36.36,0,0,1,175,266a0,0,0,0,0,0,0l-.05,0-.07,0-.46-.31c-.26-.14-.57-.26-.81-.41-.54-.18-1-.31-1.57-.45-.26,0-.5,0-.74,0a6,6,0,0,0-.74,0,1.62,1.62,0,0,0-.31,0l-.28.05-.55.14-.64.2.06,0-.14.07-.09,0h0c-.38.21-1.07.62-1.19.71l-.07,0-.07.06a.36.36,0,0,1-.09.08l-.2.17-.81.85,0,0v0h0v0l0,.07c-.1.17-.22.32-.32.51s-.26.49-.4.73a10.19,10.19,0,0,0-.41,1.36.71.71,0,0,0,0,.2.53.53,0,0,0,0,.18.34.34,0,0,0,0,.1.18.18,0,0,0,0,.1,9.84,9.84,0,0,0,0,1.33.06.06,0,0,1,0,0h0v.12a1.09,1.09,0,0,0,0,.26s0,.07,0,0v0s0-.1,0-.29c0,0,0,.05,0,.08,0,.19.07.38.12.56l.35,1.08c0,.07,0,.16.09.26l-.07-.24.1.24.28.48c.12.17.22.35.32.5a0,0,0,0,0,0,0l.07.07.05.06h0l1,1.05-.12-.07-.1,0c.05.09.72.59.24.12.15.09.31.21.45.31l1,.53c-.09,0-.16,0-.21,0l.17.07a.84.84,0,0,1,.19.07l.05,0,.57.17c.28.07.55.14.83.19H170c-.62,0,1.07.22.16,0,.44,0,.87.05,1.32,0l.52,0s0,0,.07,0c.46-.1.91-.26,1.36-.38-.21.16.22,0,.34-.08a1.06,1.06,0,0,0-.32.08.4.4,0,0,0,.12-.07l.5-.25.93-.61-.11.11c.07,0,.18-.16.33-.26l-.19.12.17-.16.4-.38c.16-.15.28-.36.45-.49a.35.35,0,0,0-.05.08c-.5.76.51-.45.07-.1.25-.43.51-.86.77-1.33l0,0,.17-.51c0-.12.22-.86.29-1.21v0a.26.26,0,0,0,0-.14h0C177.38,271.38,177.4,271.18,177.4,271Zm0,0-.05-.81v-.1c-.14-.54-.28-1-.43-1.55a.1.1,0,0,0,0-.07c-.14-.24-.26-.5-.4-.73s-.29-.44-.43-.67c.42.4,0-.15-.13-.26a.76.76,0,0,0,.12.23h0l-1-1A.36.36,0,0,1,175,266a0,0,0,0,0,0,0l-.05,0-.07,0-.46-.31c-.26-.14-.57-.26-.81-.41-.54-.18-1-.31-1.57-.45-.26,0-.5,0-.74,0a6,6,0,0,0-.74,0,1.62,1.62,0,0,0-.31,0l-.28.05-.55.14-.64.2.06,0-.14.07-.09,0h0c-.38.21-1.07.62-1.19.71l-.07,0-.07.06a.36.36,0,0,1-.09.08l-.2.17-.81.85,0,0v0h0v0l0,.07c-.1.17-.22.32-.32.51s-.26.49-.4.73a10.19,10.19,0,0,0-.41,1.36.71.71,0,0,0,0,.2.53.53,0,0,0,0,.18.34.34,0,0,0,0,.1.18.18,0,0,0,0,.1,9.84,9.84,0,0,0,0,1.33.06.06,0,0,1,0,0h0v.12a1.09,1.09,0,0,0,0,.26s0,.07,0,0v0s0-.1,0-.29c0,0,0,.05,0,.08,0,.19.07.38.12.56l.35,1.08c0,.07,0,.16.09.26l-.07-.24.1.24.28.48c.12.17.22.35.32.5a0,0,0,0,0,0,0l.07.07.05.06h0l1,1.05-.12-.07-.1,0c.05.09.72.59.24.12.15.09.31.21.45.31l1,.53c-.09,0-.16,0-.21,0l.17.07a.84.84,0,0,1,.19.07l.05,0,.57.17c.28.07.55.14.83.19H170c-.62,0,1.07.22.16,0,.44,0,.87.05,1.32,0l.52,0s0,0,.07,0c.46-.1.91-.26,1.36-.38-.21.16.22,0,.34-.08a1.06,1.06,0,0,0-.32.08.4.4,0,0,0,.12-.07l.5-.25.93-.61-.11.11c.07,0,.18-.16.33-.26l-.19.12.17-.16.4-.38c.16-.15.28-.36.45-.49a.35.35,0,0,0-.05.08c-.5.76.51-.45.07-.1.25-.43.51-.86.77-1.33l0,0,.17-.51c0-.12.22-.86.29-1.21v0a.26.26,0,0,0,0-.14h0C177.38,271.38,177.4,271.18,177.4,271Zm-.5-2.53a.64.64,0,0,1,0,.07C177.24,269,176.64,267.61,176.9,268.44Zm-3.41-3.33s0,0,0,0h.07a.82.82,0,0,0,.27.07C173.76,265.13,173.16,264.87,173.49,265.11ZM172,264.7c.93,0-.84-.21,0,0Zm.07,12.54c-.16,0-.24,0-.28.07a2.54,2.54,0,0,0,.49-.09Zm-1.86-12.56-.28,0,.28,0,.21,0A.86.86,0,0,0,170.18,264.68Zm-4.91,3.76c.27-.92-.48.82,0,0Zm38.11,21.39h0a.22.22,0,0,1,0-.11c-.14-.51-.28-1-.45-1.51v0a0,0,0,0,0,0,0c-.12-.24-.24-.46-.37-.7l-.4-.61-.09-.08q-.47-.5-1-1l-.12-.1-.11-.07a5.55,5.55,0,0,0-.48-.29c-.24-.16-.55-.26-.79-.43-.53-.17-1-.31-1.59-.45-.24,0-.48,0-.74,0h-.74a1.42,1.42,0,0,1-.29,0l-.28.07a4.92,4.92,0,0,0-.55.14l-.58.17s0,0,0,0l-.17.09a.06.06,0,0,0,0,0h-.05c-.38.21-1,.62-1.17.69l-.17.12-.06,0-.2.19-.85.88,0,0L192,287c-.09.15-.21.32-.31.5s-.26.48-.4.72a0,0,0,0,1,0,0h0c-.13.45-.29.88-.39,1.35,0,.1,0,.24-.06.36a1,1,0,0,1,.11-.28,1.62,1.62,0,0,1-.12.38.22.22,0,0,0,0,.11,9.67,9.67,0,0,0,0,1.32v.05a.54.54,0,0,0,0,.11c0,.19.07.38.13.57l.34,1.08,0,0,.1.22a3.9,3.9,0,0,0,.28.49c.1.17.2.32.31.49l0,0a0,0,0,0,0,0,0l0,0,1,1.07s0,0,0,0,.27.21.41.29l.85.49c-.12,0-.16,0,.13.06h0a.07.07,0,0,1,0,0l.18.11a.06.06,0,0,0,0,0l.58.17a5.53,5.53,0,0,0,.78.19,7.76,7.76,0,0,0,1,0h.44l.42,0a.06.06,0,0,0,.05,0h.12c.46-.11.91-.25,1.36-.38a.18.18,0,0,1,.1,0s0,0,0,0,.33-.17.48-.25l.9-.59,0,0,.2-.19.4-.38c.14-.14.28-.35.43-.48l0,0,.75-1.26,0-.05.19-.55c0-.12.19-.72.28-1.08v0c0-.29,0-.57,0-.86Zm0-.12v-.17S203.34,289.61,203.36,289.71ZM112,389.36v0a.13.13,0,0,1,0-.09c-.14-.51-.28-1-.45-1.53-.14-.24-.26-.5-.39-.74s-.31-.47-.47-.69l-1-1-.12-.1-.11-.07c-.15-.11-.31-.19-.46-.3a8.13,8.13,0,0,1-.83-.43c-.51-.17-1-.29-1.55-.43l-.1,0h0l-.64,0c-.24,0-.48,0-.74,0h-.15a.36.36,0,0,0-.14,0l-.28,0c-.18.06-.37.09-.55.14l-.65.21.07,0a.91.91,0,0,0-.23.09v0h0c-.38.21-1,.61-1.15.68h0l0,.05-.16.12-.2.19-.85.88,0,.05-.05.05c-.09.17-.21.34-.31.5s-.26.5-.4.74c0,0,0,0,0,0-.14.43-.28.86-.38,1.31a4.8,4.8,0,0,1-.11.57.79.79,0,0,0,0-.09.22.22,0,0,0,0,.11,9.72,9.72,0,0,0,0,1.32v.06a.27.27,0,0,0,0,.1,4.22,4.22,0,0,0,.12.55l.34,1.09h0l.1.23c.09.17.19.32.28.5s.22.32.32.5a0,0,0,0,0,0,0l.07.07.08.14s0,0,.06,0,0,0,0-.07l1,1s0,0,0,0l.41.28,1,.55A.9.9,0,0,0,103,396l.17.07a.42.42,0,0,1,.12,0l.11.05,0,0,.62.2c.28.07.55.14.83.19h0c.45,0,.88.06,1.32,0l.52,0h.07c.47-.11.91-.26,1.36-.4a.18.18,0,0,1,.09,0l0,0c.15-.09.33-.17.5-.26l.93-.6,0,0,.18-.15.39-.4a3.5,3.5,0,0,1,.38-.39s0-.06,0-.06c.29-.44.56-.91.82-1.37l0,0,.17-.52c0-.12.19-.72.28-1.1v0c0-.29,0-.56,0-.86Zm0-.11v-.17S111.93,389.15,112,389.25ZM216.3,505.39a.11.11,0,0,1,0-.07h0l0-.07v-.12s0,0,0,.06l-.39-1.38s0,0,0,0c-.14-.24-.26-.5-.39-.74s-.28-.41-.42-.64l-.05,0-1-1-.23-.15-.46-.31c-.24-.14-.52-.25-.74-.4,0,0,0,0-.05,0-.52-.19-1-.31-1.59-.45l-.74,0c-.24,0-.5,0-.74,0h-.09s0,0-.06,0h-.14l-.29.06-.56.13c-.2.07-.41.14-.6.19a.26.26,0,0,0-.12.06l-.09,0h0c-.38.21-1.07.62-1.19.71l-.23.15-.2.19-.78.81,0,0,0,0,0,0-.06.07c-.1.17-.22.33-.31.5s-.27.5-.41.74a13.26,13.26,0,0,0-.41,1.36,3.2,3.2,0,0,1-.11.57,1,1,0,0,0,.07-.15.74.74,0,0,0,0,.17,7.39,7.39,0,0,0,0,1.33v.07a.45.45,0,0,1,0,.08c.05.19.08.38.12.55l.39,1.17.09.18c.08.15.17.32.27.48s.23.38.35.55l0,0,0,0,1,1.05a4.48,4.48,0,0,1,.47.33l1,.53a1.49,1.49,0,0,0-.21,0l.17.07.18.05.07,0c.18.06.37.13.56.18l.85.19h0c.44,0,.86,0,1.3,0l.5,0,.09,0c.47-.1.91-.26,1.38-.4h.08s0,0,0,0l.5-.26.93-.6,0,0,.18-.16.39-.38c.16-.15.28-.36.45-.5l0,0c.27-.43.51-.86.77-1.32l0,0,.17-.52c0-.12.21-.72.29-1.1v0c0-.3,0-.59,0-.86Zm0,0a.22.22,0,0,0,0,.08v-.05S216.31,505.4,216.3,505.39Zm0,0a.11.11,0,0,1,0-.07h0l0-.07v-.12s0,0,0,.06l-.39-1.38s0,0,0,0c-.14-.24-.26-.5-.39-.74s-.28-.41-.42-.64l-.05,0-1-1-.23-.15-.46-.31c-.24-.14-.52-.25-.74-.4,0,0,0,0-.05,0-.52-.19-1-.31-1.59-.45l-.74,0c-.24,0-.5,0-.74,0h-.09s0,0-.06,0h-.14l-.29.06-.56.13c-.2.07-.41.14-.6.19a.26.26,0,0,0-.12.06l-.09,0h0c-.38.21-1.07.62-1.19.71l-.23.15-.2.19-.78.81,0,0,0,0,0,0-.06.07c-.1.17-.22.33-.31.5s-.27.5-.41.74a13.26,13.26,0,0,0-.41,1.36,3.2,3.2,0,0,1-.11.57,1,1,0,0,0,.07-.15.74.74,0,0,0,0,.17,7.39,7.39,0,0,0,0,1.33v.07a.45.45,0,0,1,0,.08c.05.19.08.38.12.55l.39,1.17.09.18c.08.15.17.32.27.48s.23.38.35.55l0,0,0,0,1,1.05a4.48,4.48,0,0,1,.47.33l1,.53a1.49,1.49,0,0,0-.21,0l.17.07.18.05.07,0c.18.06.37.13.56.18l.85.19h0c.44,0,.86,0,1.3,0l.5,0,.09,0c.47-.1.91-.26,1.38-.4h.08s0,0,0,0l.5-.26.93-.6,0,0,.18-.16.39-.38c.16-.15.28-.36.45-.5l0,0c.27-.43.51-.86.77-1.32l0,0,.17-.52c0-.12.21-.72.29-1.1v0c0-.3,0-.59,0-.86Zm0,0a.22.22,0,0,0,0,.08v-.05S216.31,505.4,216.3,505.39Zm52.78,26.25-.05-.83v-.1c-.14-.52-.27-1.05-.43-1.55,0,0,0,0,0,0-.14-.24-.26-.5-.4-.74s-.31-.47-.47-.69l-1-1s0-.06-.05-.06l-.17-.12-.47-.29c-.25-.15-.57-.26-.81-.43-.53-.17-1-.29-1.56-.45.89,0-.81-.2,0,0l-.72,0h-.75l-.37,0-.21,0-.55.14-.57.17h0a.06.06,0,0,1-.05,0v0s0,0,0,0a.25.25,0,0,0-.12,0h0c-.38.21-1.07.62-1.19.69l-.17.12-.05,0-.23.17.23-.15-.21.19-.84.87,0,.06,0,0c-.09.17-.21.32-.31.5s-.26.5-.4.74c0,0,0,0,0,0-.14.43-.28.86-.38,1.31,0,.1,0,.24-.05.36a.11.11,0,0,0,0,.07v0a.22.22,0,0,0,0,.11c0,.44,0,.89,0,1.34l0-.07s0,0,0,0a1.59,1.59,0,0,0,.05.41s0-.09,0-.33a.64.64,0,0,1,0,.09,5.78,5.78,0,0,0,.12.57l.34,1.08-.05-.12a2.05,2.05,0,0,0,.14.38l-.07-.24.11.22c.08.18.18.33.27.49s.22.32.33.5l0,0,.07.07h0l.05.06,1,1.05-.12-.07c-.5-.28.74.69.14.08a3.94,3.94,0,0,0,.44.31l.92.52-.12,0,.17.07a.38.38,0,0,1,.1,0l.16.09s0,0,0,0l.57.17a5.41,5.41,0,0,0,.77.19,13.11,13.11,0,0,0,1.4.06l.39,0c-.53.14.33,0,.33,0l-.31,0a.74.74,0,0,1,.17,0,11.83,11.83,0,0,0,1.36-.38.22.22,0,0,1,.11,0s0,0,0,0a3.4,3.4,0,0,1,.5-.26l.9-.59-.07.07a.41.41,0,0,0,.14-.1h0l.21-.18.4-.39a5.74,5.74,0,0,1,.41-.47c.31-.46.57-.89.83-1.36h0l.18-.52c0-.12.22-.86.29-1.21v0a.34.34,0,0,0,0-.14h0C269.07,532.05,269.07,531.85,269.08,531.64Zm-.5-2.53s0,0,0,0C268.94,529.74,268.31,528.26,268.58,529.11Zm-.79,6.39s0,0-.05,0a.1.1,0,0,1,0,.07C267.22,536.36,268.24,535.14,267.79,535.5Zm-.09-7.82c.11.1.16.15.19.15S267.31,527.06,267.7,527.68Zm-2.53-1.91s0,0,.05,0l.07,0,.28.07C265.45,525.78,264.84,525.54,265.17,525.77Zm.09,11.71c-.42.22.1,0,.24-.07A.93.93,0,0,0,265.26,537.48Zm-3.4.43a.06.06,0,0,1-.05,0h-.08C261.09,537.88,262.81,538.12,261.86,537.91Zm-4.94-8.75s0,0,0,0C257.23,528.19,256.51,529.85,256.92,529.16Zm0,0s0,0,0,0C257.23,528.19,256.51,529.85,256.92,529.16Zm4.94,8.75a.06.06,0,0,1-.05,0h-.08C261.09,537.88,262.81,538.12,261.86,537.91Zm3.4-.43c-.42.22.1,0,.24-.07A.93.93,0,0,0,265.26,537.48Zm-.09-11.71s0,0,.05,0l.07,0,.28.07C265.45,525.78,264.84,525.54,265.17,525.77Zm2.53,1.91c.11.1.16.15.19.15S267.31,527.06,267.7,527.68Zm.09,7.82s0,0-.05,0a.1.1,0,0,1,0,.07C267.22,536.36,268.24,535.14,267.79,535.5Zm.79-6.39s0,0,0,0C268.94,529.74,268.31,528.26,268.58,529.11Zm.5,2.53-.05-.83v-.1c-.14-.52-.27-1.05-.43-1.55,0,0,0,0,0,0-.14-.24-.26-.5-.4-.74s-.31-.47-.47-.69l-1-1s0-.06-.05-.06l-.17-.12-.47-.29c-.25-.15-.57-.26-.81-.43-.53-.17-1-.29-1.56-.45.89,0-.81-.2,0,0l-.72,0h-.75l-.37,0-.21,0-.55.14-.57.17h0a.06.06,0,0,1-.05,0v0s0,0,0,0a.25.25,0,0,0-.12,0h0c-.38.21-1.07.62-1.19.69l-.17.12-.05,0-.23.17.23-.15-.21.19-.84.87,0,.06,0,0c-.09.17-.21.32-.31.5s-.26.5-.4.74c0,0,0,0,0,0-.14.43-.28.86-.38,1.31,0,.1,0,.24-.05.36a.11.11,0,0,0,0,.07v0a.22.22,0,0,0,0,.11c0,.44,0,.89,0,1.34l0-.07s0,0,0,0a1.59,1.59,0,0,0,.05.41s0-.09,0-.33a.64.64,0,0,1,0,.09,5.78,5.78,0,0,0,.12.57l.34,1.08-.05-.12a2.05,2.05,0,0,0,.14.38l-.07-.24.11.22c.08.18.18.33.27.49s.22.32.33.5l0,0,.07.07h0l.05.06,1,1.05-.12-.07c-.5-.28.74.69.14.08a3.94,3.94,0,0,0,.44.31l.92.52-.12,0,.17.07a.38.38,0,0,1,.1,0l.16.09s0,0,0,0l.57.17a5.41,5.41,0,0,0,.77.19,13.11,13.11,0,0,0,1.4.06l.39,0c-.53.14.33,0,.33,0l-.31,0a.74.74,0,0,1,.17,0,11.83,11.83,0,0,0,1.36-.38.22.22,0,0,1,.11,0s0,0,0,0a3.4,3.4,0,0,1,.5-.26l.9-.59-.07.07a.41.41,0,0,0,.14-.1h0l.21-.18.4-.39a5.74,5.74,0,0,1,.41-.47c.31-.46.57-.89.83-1.36h0l.18-.52c0-.12.22-.86.29-1.21v0a.34.34,0,0,0,0-.14h0C269.07,532.05,269.07,531.85,269.08,531.64Zm-.5-2.53s0,0,0,0C268.94,529.74,268.31,528.26,268.58,529.11Zm-.79,6.39s0,0-.05,0a.1.1,0,0,1,0,.07C267.22,536.36,268.24,535.14,267.79,535.5Zm-.09-7.82c.11.1.16.15.19.15S267.31,527.06,267.7,527.68Zm-2.53-1.91s0,0,.05,0l.07,0,.28.07C265.45,525.78,264.84,525.54,265.17,525.77Zm.09,11.71c-.42.22.1,0,.24-.07A.93.93,0,0,0,265.26,537.48Zm-3.4.43a.06.06,0,0,1-.05,0h-.08C261.09,537.88,262.81,538.12,261.86,537.91Zm-4.94-8.75s0,0,0,0C257.23,528.19,256.51,529.85,256.92,529.16Zm12.16,2.48-.05-.83v-.1c-.14-.52-.27-1.05-.43-1.55,0,0,0,0,0,0-.14-.24-.26-.5-.4-.74s-.31-.47-.47-.69l-1-1s0-.06-.05-.06l-.17-.12-.47-.29c-.25-.15-.57-.26-.81-.43-.53-.17-1-.29-1.56-.45.89,0-.81-.2,0,0l-.72,0h-.75l-.37,0-.21,0-.55.14-.57.17h0a.06.06,0,0,1-.05,0v0s0,0,0,0a.25.25,0,0,0-.12,0h0c-.38.21-1.07.62-1.19.69l-.17.12-.05,0-.23.17.23-.15-.21.19-.84.87,0,.06,0,0c-.09.17-.21.32-.31.5s-.26.5-.4.74c0,0,0,0,0,0-.14.43-.28.86-.38,1.31,0,.1,0,.24-.05.36a.11.11,0,0,0,0,.07v0a.22.22,0,0,0,0,.11c0,.44,0,.89,0,1.34l0-.07s0,0,0,0a1.59,1.59,0,0,0,.05.41s0-.09,0-.33a.64.64,0,0,1,0,.09,5.78,5.78,0,0,0,.12.57l.34,1.08-.05-.12a2.05,2.05,0,0,0,.14.38l-.07-.24.11.22c.08.18.18.33.27.49s.22.32.33.5l0,0,.07.07h0l.05.06,1,1.05-.12-.07c-.5-.28.74.69.14.08a3.94,3.94,0,0,0,.44.31l.92.52-.12,0,.17.07a.38.38,0,0,1,.1,0l.16.09s0,0,0,0l.57.17a5.41,5.41,0,0,0,.77.19,13.11,13.11,0,0,0,1.4.06l.39,0c-.53.14.33,0,.33,0l-.31,0a.74.74,0,0,1,.17,0,11.83,11.83,0,0,0,1.36-.38.22.22,0,0,1,.11,0s0,0,0,0a3.4,3.4,0,0,1,.5-.26l.9-.59-.07.07a.41.41,0,0,0,.14-.1h0l.21-.18.4-.39a5.74,5.74,0,0,1,.41-.47c.31-.46.57-.89.83-1.36h0l.18-.52c0-.12.22-.86.29-1.21v0a.34.34,0,0,0,0-.14h0C269.07,532.05,269.07,531.85,269.08,531.64Zm-12.16-2.48s0,0,0,0C257.23,528.19,256.51,529.85,256.92,529.16Zm4.94,8.75a.06.06,0,0,1-.05,0h-.08C261.09,537.88,262.81,538.12,261.86,537.91Zm3.4-.43c-.42.22.1,0,.24-.07A.93.93,0,0,0,265.26,537.48Zm-.09-11.71s0,0,.05,0l.07,0,.28.07C265.45,525.78,264.84,525.54,265.17,525.77Zm2.53,1.91c.11.1.16.15.19.15S267.31,527.06,267.7,527.68Zm.09,7.82s0,0-.05,0a.1.1,0,0,1,0,.07C267.22,536.36,268.24,535.14,267.79,535.5Zm.79-6.39s0,0,0,0C268.94,529.74,268.31,528.26,268.58,529.11Zm.5,2.53-.05-.83v-.1c-.14-.52-.27-1.05-.43-1.55,0,0,0,0,0,0-.14-.24-.26-.5-.4-.74s-.31-.47-.47-.69l-1-1s0-.06-.05-.06l-.17-.12-.47-.29c-.25-.15-.57-.26-.81-.43-.53-.17-1-.29-1.56-.45.89,0-.81-.2,0,0l-.72,0h-.75l-.37,0-.21,0-.55.14-.57.17h0a.06.06,0,0,1-.05,0v0s0,0,0,0a.25.25,0,0,0-.12,0h0c-.38.21-1.07.62-1.19.69l-.17.12-.05,0-.23.17.23-.15-.21.19-.84.87,0,.06,0,0c-.09.17-.21.32-.31.5s-.26.5-.4.74c0,0,0,0,0,0-.14.43-.28.86-.38,1.31,0,.1,0,.24-.05.36a.11.11,0,0,0,0,.07v0a.22.22,0,0,0,0,.11c0,.44,0,.89,0,1.34l0-.07s0,0,0,0a1.59,1.59,0,0,0,.05.41s0-.09,0-.33a.64.64,0,0,1,0,.09,5.78,5.78,0,0,0,.12.57l.34,1.08-.05-.12a2.05,2.05,0,0,0,.14.38l-.07-.24.11.22c.08.18.18.33.27.49s.22.32.33.5l0,0,.07.07h0l.05.06,1,1.05-.12-.07c-.5-.28.74.69.14.08a3.94,3.94,0,0,0,.44.31l.92.52-.12,0,.17.07a.38.38,0,0,1,.1,0l.16.09s0,0,0,0l.57.17a5.41,5.41,0,0,0,.77.19,13.11,13.11,0,0,0,1.4.06l.39,0c-.53.14.33,0,.33,0l-.31,0a.74.74,0,0,1,.17,0,11.83,11.83,0,0,0,1.36-.38.22.22,0,0,1,.11,0s0,0,0,0a3.4,3.4,0,0,1,.5-.26l.9-.59-.07.07a.41.41,0,0,0,.14-.1h0l.21-.18.4-.39a5.74,5.74,0,0,1,.41-.47c.31-.46.57-.89.83-1.36h0l.18-.52c0-.12.22-.86.29-1.21v0a.34.34,0,0,0,0-.14h0C269.07,532.05,269.07,531.85,269.08,531.64Zm0,0-.05-.83v-.1c-.14-.52-.27-1.05-.43-1.55,0,0,0,0,0,0-.14-.24-.26-.5-.4-.74s-.31-.47-.47-.69l-1-1s0-.06-.05-.06l-.17-.12-.47-.29c-.25-.15-.57-.26-.81-.43-.53-.17-1-.29-1.56-.45.89,0-.81-.2,0,0l-.72,0h-.75l-.37,0-.21,0-.55.14-.57.17h0a.06.06,0,0,1-.05,0v0s0,0,0,0a.25.25,0,0,0-.12,0h0c-.38.21-1.07.62-1.19.69l-.17.12-.05,0-.23.17.23-.15-.21.19-.84.87,0,.06,0,0c-.09.17-.21.32-.31.5s-.26.5-.4.74c0,0,0,0,0,0-.14.43-.28.86-.38,1.31,0,.1,0,.24-.05.36a.11.11,0,0,0,0,.07v0a.22.22,0,0,0,0,.11c0,.44,0,.89,0,1.34l0-.07s0,0,0,0a1.59,1.59,0,0,0,.05.41s0-.09,0-.33a.64.64,0,0,1,0,.09,5.78,5.78,0,0,0,.12.57l.34,1.08-.05-.12a2.05,2.05,0,0,0,.14.38l-.07-.24.11.22c.08.18.18.33.27.49s.22.32.33.5l0,0,.07.07h0l.05.06,1,1.05-.12-.07c-.5-.28.74.69.14.08a3.94,3.94,0,0,0,.44.31l.92.52-.12,0,.17.07a.38.38,0,0,1,.1,0l.16.09s0,0,0,0l.57.17a5.41,5.41,0,0,0,.77.19,13.11,13.11,0,0,0,1.4.06l.39,0c-.53.14.33,0,.33,0l-.31,0a.74.74,0,0,1,.17,0,11.83,11.83,0,0,0,1.36-.38.22.22,0,0,1,.11,0s0,0,0,0a3.4,3.4,0,0,1,.5-.26l.9-.59-.07.07a.41.41,0,0,0,.14-.1h0l.21-.18.4-.39a5.74,5.74,0,0,1,.41-.47c.31-.46.57-.89.83-1.36h0l.18-.52c0-.12.22-.86.29-1.21v0a.34.34,0,0,0,0-.14h0C269.07,532.05,269.07,531.85,269.08,531.64Zm-.5-2.53s0,0,0,0C268.94,529.74,268.31,528.26,268.58,529.11Zm-.79,6.39s0,0-.05,0a.1.1,0,0,1,0,.07C267.22,536.36,268.24,535.14,267.79,535.5Zm-.09-7.82c.11.1.16.15.19.15S267.31,527.06,267.7,527.68Zm-2.53-1.91s0,0,.05,0l.07,0,.28.07C265.45,525.78,264.84,525.54,265.17,525.77Zm.09,11.71c-.42.22.1,0,.24-.07A.93.93,0,0,0,265.26,537.48Zm-3.4.43a.06.06,0,0,1-.05,0h-.08C261.09,537.88,262.81,538.12,261.86,537.91Zm-4.94-8.75s0,0,0,0C257.23,528.19,256.51,529.85,256.92,529.16ZM275.58,216.5v-.07l0-.28s0,.07,0,.17c-.14-.5-.26-1-.41-1.46a.13.13,0,0,0,0-.07c-.14-.24-.26-.5-.39-.74s-.31-.47-.47-.69l-1-1-.22-.16-.47-.31a7,7,0,0,1-.86-.45c-.52-.15-1-.29-1.52-.41h0l-.73,0c-.26,0-.5,0-.74,0h-.19l-.12,0-.27,0-.56.14a6.36,6.36,0,0,1-.62.19l-.12,0,0,0h0v0h0c-.38.2-1.07.62-1.19.7l-.07,0-.16.12h0l-.19.19-.81.84,0,0h0v0l-.06.07c-.1.17-.22.33-.32.5s-.26.5-.4.74a.13.13,0,0,0,0,.05c-.14.43-.28.86-.38,1.31a5.22,5.22,0,0,1-.11.57.31.31,0,0,0,0-.09.22.22,0,0,0,0,.11,9.72,9.72,0,0,0,0,1.32v.05a.28.28,0,0,0,0,.11,3.61,3.61,0,0,0,.12.55l.34,1.08,0,0,.1.24.28.49c.1.17.22.34.32.5a0,0,0,0,0,0,0l.1.1a0,0,0,0,1,0,0l0,0,0,.05,1,1h0c.16.09.29.21.43.3l1,.55a.9.9,0,0,0-.19,0l.17.07a.42.42,0,0,1,.12,0l.11,0,0,0,.62.2c.28.07.56.14.83.19h0c.45,0,.88,0,1.32,0l.52,0h.07c.47-.11.91-.26,1.36-.4a.18.18,0,0,1,.09,0l0,0c.15-.09.33-.17.5-.26l.93-.6,0,0,.18-.15.39-.38c.12-.12.23-.28.38-.42s0,0,0,0a16.2,16.2,0,0,0,.84-1.4h0l.17-.52c0-.12.21-.74.28-1.12v0c0-.29,0-.56.05-.86Z" transform="translate(-85.16 -170.48)"/><path class="cls-2" d="M102.25,474.84h0a.17.17,0,0,1,0-.07S102.23,474.82,102.25,474.84Z" transform="translate(-85.16 -170.48)"/><path class="cls-2" d="M271.25,256.19c.06-.35.21-.52,0,0Z" transform="translate(-85.16 -170.48)"/><path class="cls-2" d="M263,216.63c.05-.43.27-.7,0,0Z" transform="translate(-85.16 -170.48)"/><path class="cls-2" d="M266.81,211.5l0,0v0Z" transform="translate(-85.16 -170.48)"/><path class="cls-2" d="M169.73,231.05a.92.92,0,0,1,.1-.32A.88.88,0,0,1,169.73,231.05Z" transform="translate(-85.16 -170.48)"/><path class="cls-2" d="M164.79,271.78c.07,1-.14-.59,0,0Z" transform="translate(-85.16 -170.48)"/><path class="cls-2" d="M164.79,270.28a.34.34,0,0,1,0-.1.53.53,0,0,1,0-.18C164.92,269.78,165,269.75,164.79,270.28Z" transform="translate(-85.16 -170.48)"/><path class="cls-2" d="M165.27,268.44c-.48.82.27-.92,0,0Z" transform="translate(-85.16 -170.48)"/><path class="cls-2" d="M165.29,273.52l.07.24a4.45,4.45,0,0,1-.18-.45,1.43,1.43,0,0,0,.09.19Z" transform="translate(-85.16 -170.48)"/><path class="cls-2" d="M167.13,275.93c.48.47-.19,0-.24-.12l.1,0,.12.07S167.13,275.91,167.13,275.93Z" transform="translate(-85.16 -170.48)"/><path class="cls-2" d="M168.66,276.81l.12.07-.05,0Z" transform="translate(-85.16 -170.48)"/><path class="cls-2" d="M170.18,264.7l-.28,0,.28,0a.86.86,0,0,1,.21,0Z" transform="translate(-85.16 -170.48)"/><path class="cls-2" d="M170.2,277.24c.91.22-.78,0-.16,0Z" transform="translate(-85.16 -170.48)"/><path class="cls-2" d="M172,277.24l.21,0a2.54,2.54,0,0,1-.49.09S171.88,277.27,172,277.24Z" transform="translate(-85.16 -170.48)"/><path class="cls-2" d="M172,264.7c-.84-.21.93,0,0,0Z" transform="translate(-85.16 -170.48)"/><path class="cls-2" d="M173.49,276.84a1.06,1.06,0,0,1,.32-.08c-.12.08-.55.24-.34.08Z" transform="translate(-85.16 -170.48)"/><path class="cls-2" d="M173.88,265.23a.82.82,0,0,1-.27-.07h-.07s0,0,0,0C173.16,264.87,173.76,265.13,173.88,265.23Z" transform="translate(-85.16 -170.48)"/><path class="cls-2" d="M175.07,275.88l.19-.12c-.15.1-.26.21-.33.26l.11-.11Z" transform="translate(-85.16 -170.48)"/><path class="cls-2" d="M175.26,266.18,175,266l-.07-.06C174.74,265.77,174.86,265.87,175.26,266.18Z" transform="translate(-85.16 -170.48)"/><path class="cls-2" d="M176,274.93a.35.35,0,0,1,.05-.08l0,0C176.55,274.48,175.54,275.69,176,274.93Z" transform="translate(-85.16 -170.48)"/><path class="cls-2" d="M175.92,266.78c.12.11.55.66.13.26,0,0,0,0,0,0A.76.76,0,0,1,175.92,266.78Z" transform="translate(-85.16 -170.48)"/><path class="cls-2" d="M176.9,273.48a.63.63,0,0,1,.1-.17,1.71,1.71,0,0,1-.14.26l0-.07Z" transform="translate(-85.16 -170.48)"/><path class="cls-2" d="M176.92,268.51a.64.64,0,0,0,0-.07C176.64,267.61,177.24,269,176.92,268.51Z" transform="translate(-85.16 -170.48)"/><path class="cls-2" d="M190.4,357.47c.06-.43.28-.71,0,0Z" transform="translate(-85.16 -170.48)"/><path class="cls-2" d="M99.55,389.13a2.37,2.37,0,0,1-.14.43A.86.86,0,0,1,99.55,389.13Z" transform="translate(-85.16 -170.48)"/><path class="cls-2" d="M251,479.58c0-.43.27-.71,0,0Z" transform="translate(-85.16 -170.48)"/><path class="cls-2" d="M203.77,505.52c0-.34.21-.51,0,0Z" transform="translate(-85.16 -170.48)"/><path class="cls-2" d="M256.47,532.43c0,1-.15-.57,0,0Z" transform="translate(-85.16 -170.48)"/><path class="cls-2" d="M256.49,530.83a.71.71,0,0,1,.12-.31,1.57,1.57,0,0,1-.14.41v0A.11.11,0,0,1,256.49,530.83Z" transform="translate(-85.16 -170.48)"/><path class="cls-2" d="M256.92,529.16c-.41.69.31-1,0,0C256.94,529.12,256.92,529.14,256.92,529.16Z" transform="translate(-85.16 -170.48)"/><path class="cls-2" d="M257,534.19l.07.24a2.05,2.05,0,0,1-.14-.38l.05.12Z" transform="translate(-85.16 -170.48)"/><path class="cls-2" d="M258.8,526.7l-.23.15.23-.17.05,0Z" transform="translate(-85.16 -170.48)"/><path class="cls-2" d="M258.68,536.5l.12.07h0C259.42,537.19,258.18,536.22,258.68,536.5Z" transform="translate(-85.16 -170.48)"/><path class="cls-2" d="M260.45,525.73l-.05,0v0A.06.06,0,0,0,260.45,525.73Z" transform="translate(-85.16 -170.48)"/><path class="cls-2" d="M260.33,537.48l-.07,0a.61.61,0,0,1,.21.08Z" transform="translate(-85.16 -170.48)"/><path class="cls-2" d="M261.73,537.89h.08a.06.06,0,0,0,.05,0C262.81,538.12,261.09,537.88,261.73,537.89Z" transform="translate(-85.16 -170.48)"/><path class="cls-2" d="M263.6,537.91h0l.31,0S263.07,538.05,263.6,537.91Z" transform="translate(-85.16 -170.48)"/><path class="cls-2" d="M263.66,525.35h0C262.85,525.15,264.55,525.39,263.66,525.35Z" transform="translate(-85.16 -170.48)"/><path class="cls-2" d="M265.26,537.48a.93.93,0,0,1,.24-.07C265.36,537.51,264.84,537.7,265.26,537.48Z" transform="translate(-85.16 -170.48)"/><path class="cls-2" d="M265.17,525.77c-.33-.23.28,0,.4.12l-.28-.07-.07,0S265.19,525.78,265.17,525.77Z" transform="translate(-85.16 -170.48)"/><path class="cls-2" d="M266.76,536.57a.41.41,0,0,1-.14.1l.07-.07,0,0Z" transform="translate(-85.16 -170.48)"/><path class="cls-2" d="M266.72,526.7l-.05-.06c.07,0,.16.12.28.21Z" transform="translate(-85.16 -170.48)"/><path class="cls-2" d="M267.7,527.68c-.39-.62.23.12.19.15S267.81,527.78,267.7,527.68Z" transform="translate(-85.16 -170.48)"/><path class="cls-2" d="M267.7,535.6a.1.1,0,0,0,0-.07s0,0,.05,0C268.24,535.14,267.22,536.36,267.7,535.6Z" transform="translate(-85.16 -170.48)"/><path class="cls-2" d="M268.57,534.17h0a.13.13,0,0,1,0,.08Z" transform="translate(-85.16 -170.48)"/><path class="cls-2" d="M268.6,529.16s0,0,0,0C268.31,528.26,268.94,529.74,268.6,529.16Z" transform="translate(-85.16 -170.48)"/><text class="cls-3" transform="translate(264.42 288.88) rotate(0.85)">R</text></svg>